# xmcd
#
# Track frame offsets:
#   150
#   19355
#   45092
#   62982
#   84020
#
# Disc length: 1335 seconds
#
# Revision: 9
# Processed by: cddbd v1.5.2PL0 Copyright (c) Steve Scherf et al.
# Submitted via: audiograbber 1.83.01
#
DISCID=30053505
DTITLE=Savage Garden / To the moon & back
DYEAR=1997
DGENRE=Pop
TTITLE0=To the moon & back (Short edit)
TTITLE1=To the moon & back
TTITLE2=To the moon & back (Hani's NUM Radio edit)
TTITLE3=To the moon & back (Escape Into Hyper Space)
TTITLE4=Memories are designed to fade
EXTD=
EXTT0=
EXTT1=
EXTT2=
EXTT3=
EXTT4=
PLAYORDER=
.
